<svg xmlns="http://www.w3.org/2000/svg" class="hide"><symbol id="bars" viewBox="0 0 1792 1792"><path d="M1664 1344v128q0 26-19 45t-45 19H192q-26 0-45-19t-19-45v-128q0-26 19-45t45-19h1408q26 0 45 19t19 45zm0-512v128q0 26-19 45t-45 19H192q-26 0-45-19t-19-45V832q0-26 19-45t45-19h1408q26 0 45 19t19 45zm0-512v128q0 26-19 45t-45 19H192q-26 0-45-19t-19-45V320q0-26 19-45t45-19h1408q26 0 45 19t19 45z"/></symbol><symbol id="chevron-left" viewBox="0 0 1792 1792"><path d="M1427 301L896 832l531 531q19 19 19 45t-19 45l-166 166q-19 19-45 19t-45-19L429 877q-19-19-19-45t19-45l742-742q19-19 45-19t45 19l166 166q19 19 19 45t-19 45z"/></symbol><symbol id="chevron-right" viewBox="0 0 1792 1792"><path d="M1363 877l-742 742q-19 19-45 19t-45-19l-166-166q-19-19-19-45t19-45l531-531-531-531q-19-19-19-45t19-45L531 45q19-19 45-19t45 19l742 742q19 19 19 45t-19 45z"/></symbol><symbol id="facebook" viewBox="0 0 1792 1792"><path d="M1343 12v264h-157q-86 0-116 36t-30 108v189h293l-39 296h-254v759H734V905H479V609h255V391q0-186 104-288.5T1115 0q147 0 228 12z"/></symbol><symbol id="github" viewBox="0 0 1792 1792"><path d="M1664 896q0 251-146.5 451.5T1139 1625q-27 5-39.5-7t-12.5-30v-211q0-97-52-142 57-6 102.5-18t94-39 81-66.5 53-105T1386 856q0-121-79-206 37-91-8-204-28-9-81 11t-92 44l-38 24q-93-26-192-26t-192 26q-16-11-42.5-27T578 459.5 492 446q-44 113-7 204-79 85-79 206 0 85 20.5 150t52.5 105 80.5 67 94 39 102.5 18q-40 36-49 103-21 10-45 15t-57 5-65.5-21.5T484 1274q-19-32-48.5-52t-49.5-24l-20-3q-21 0-29 4.5t-5 11.5 9 14 13 12l7 5q22 10 43.5 38t31.5 51l10 23q13 38 44 61.5t67 30 69.5 7 55.5-3.5l23-4q0 38 .5 89t.5 54q0 18-13 30t-40 7q-232-77-378.5-277.5T128 896q0-209 103-385.5T510.5 231 896 128t385.5 103T1561 510.5 1664 896z"/></symbol><symbol id="google-plus" viewBox="0 0 1792 1792"><path d="M799 796q0 36 32 70.5t77.5 68T999 1008t77 104 32 142q0 90-48 173-72 122-211 179.5T551 1664q-132 0-246.5-41.5T133 1485q-37-60-37-131 0-81 44.5-150T259 1089q131-82 404-100-32-42-47.5-74T600 842q0-36 21-85-46 4-68 4-148 0-249.5-96.5T202 420q0-82 36-159t99-131q77-66 182.5-98T737 0h418l-138 88H886q74 63 112 133t38 160q0 72-24.5 129.5t-59 93-69.5 65-59.5 61.5-24.5 66zm-146-96q38 0 78-16.5t66-43.5q53-57 53-159 0-58-17-125t-48.5-129.5T700 123 583 82q-42 0-82.5 19.5T435 154q-47 59-47 160 0 46 10 97.5t31.5 103 52 92.5 75 67 96.5 26zm2 873q58 0 111.5-13t99-39 73-73 27.5-109q0-25-7-49t-14.5-42-27-41.5-29.5-35-38.5-34.5-36.5-29-41.5-30-36.5-26q-16-2-48-2-53 0-105 7t-107.5 25-97 46-68.5 74.5-27 105.5q0 70 35 123.5t91.5 83 119 44T655 1573zm810-876h213v108h-213v219h-105V805h-212V697h212V480h105v217z"/></symbol><symbol id="linkedin-square" viewBox="0 0 1792 1792"><path d="M365 1414h231V720H365v694zm246-908q-1-52-36-86t-93-34-94.5 34-36.5 86q0 51 35.5 85.5T479 626h1q59 0 95-34.5t36-85.5zm585 908h231v-398q0-154-73-233t-193-79q-136 0-209 117h2V720H723q3 66 0 694h231v-388q0-38 7-56 15-35 45-59.5t74-24.5q116 0 116 157v371zm468-998v960q0 119-84.5 203.5T1376 1664H416q-119 0-203.5-84.5T128 1376V416q0-119 84.5-203.5T416 128h960q119 0 203.5 84.5T1664 416z"/></symbol><symbol id="search" viewBox="0 0 1792 1792"><path d="M1216 832q0-185-131.5-316.5T768 384 451.5 515.5 320 832t131.5 316.5T768 1280t316.5-131.5T1216 832zm512 832q0 52-38 90t-90 38q-54 0-90-38l-343-342q-179 124-399 124-143 0-273.5-55.5t-225-150-150-225T64 832t55.5-273.5 150-225 225-150T768 128t273.5 55.5 225 150 150 225T1472 832q0 220-124 399l343 343q37 37 37 90z"/></symbol><symbol id="times" viewBox="0 0 1792 1792"><path d="M1490 1322q0 40-28 68l-136 136q-28 28-68 28t-68-28l-294-294-294 294q-28 28-68 28t-68-28l-136-136q-28-28-28-68t28-68l294-294-294-294q-28-28-28-68t28-68l136-136q28-28 68-28t68 28l294 294 294-294q28-28 68-28t68 28l136 136q28 28 28 68t-28 68l-294 294 294 294q28 28 28 68z"/></symbol><symbol id="twitter" viewBox="0 0 1792 1792"><path d="M1684 408q-67 98-162 167 1 14 1 42 0 130-38 259.5T1369.5 1125 1185 1335.5t-258 146-323 54.5q-271 0-496-145 35 4 78 4 225 0 401-138-105-2-188-64.5T285 1033q33 5 61 5 43 0 85-11-112-23-185.5-111.5T172 710v-4q68 38 146 41-66-44-105-115t-39-154q0-88 44-163 121 149 294.5 238.5T884 653q-8-38-8-74 0-134 94.5-228.5T1199 256q140 0 236 102 109-21 205-78-37 115-142 178 93-10 186-50z"/></symbol></svg>